<mxfile host="app.diagrams.net" modified="2023-08-17T04:04:53.892Z" agent="Mozilla/5.0 (Windows NT 10.0; Win64; x64) AppleWebKit/537.36 (KHTML, like Gecko) Chrome/115.0.0.0 Safari/537.36" etag="eYSJcfZju2F9UXLwqB9_" version="21.6.8" type="github">
  <diagram name="페이지-1" id="jEqTV79KLIluIE3mg7o3">
    <mxGraphModel dx="1434" dy="758" grid="1" gridSize="10" guides="1" tooltips="1" connect="1" arrows="1" fold="1" page="1" pageScale="1" pageWidth="827" pageHeight="1169" math="0" shadow="0">
      <root>
        <mxCell id="0" />
        <mxCell id="1" parent="0" />
        <mxCell id="_FhqAb7CmunBxcdor2dk-3" value="캣휠 앱" style="rounded=0;whiteSpace=wrap;html=1;" vertex="1" parent="1">
          <mxGeometry x="90" y="50" width="120" height="30" as="geometry" />
        </mxCell>
        <mxCell id="_FhqAb7CmunBxcdor2dk-4" value="로그인" style="rounded=0;whiteSpace=wrap;html=1;" vertex="1" parent="1">
          <mxGeometry x="90" y="100" width="120" height="30" as="geometry" />
        </mxCell>
        <mxCell id="_FhqAb7CmunBxcdor2dk-5" value="" style="endArrow=none;html=1;rounded=0;entryX=0.5;entryY=1;entryDx=0;entryDy=0;exitX=0.5;exitY=0;exitDx=0;exitDy=0;" edge="1" parent="1" source="_FhqAb7CmunBxcdor2dk-4" target="_FhqAb7CmunBxcdor2dk-3">
          <mxGeometry width="50" height="50" relative="1" as="geometry">
            <mxPoint x="390" y="420" as="sourcePoint" />
            <mxPoint x="440" y="370" as="targetPoint" />
          </mxGeometry>
        </mxCell>
        <mxCell id="_FhqAb7CmunBxcdor2dk-6" value="메인 화면" style="rounded=0;whiteSpace=wrap;html=1;" vertex="1" parent="1">
          <mxGeometry x="90" y="280" width="120" height="30" as="geometry" />
        </mxCell>
        <mxCell id="_FhqAb7CmunBxcdor2dk-7" value="비밀번호 찾기" style="rounded=0;whiteSpace=wrap;html=1;" vertex="1" parent="1">
          <mxGeometry x="230" y="100" width="120" height="30" as="geometry" />
        </mxCell>
        <mxCell id="_FhqAb7CmunBxcdor2dk-8" value="" style="endArrow=none;html=1;rounded=0;entryX=1;entryY=0.5;entryDx=0;entryDy=0;" edge="1" parent="1" target="_FhqAb7CmunBxcdor2dk-4">
          <mxGeometry width="50" height="50" relative="1" as="geometry">
            <mxPoint x="230" y="115" as="sourcePoint" />
            <mxPoint x="280" y="210" as="targetPoint" />
          </mxGeometry>
        </mxCell>
        <mxCell id="_FhqAb7CmunBxcdor2dk-9" value="이용약관" style="rounded=0;whiteSpace=wrap;html=1;" vertex="1" parent="1">
          <mxGeometry x="230" y="130" width="120" height="30" as="geometry" />
        </mxCell>
        <mxCell id="_FhqAb7CmunBxcdor2dk-10" value="개인정보 취급방침" style="rounded=0;whiteSpace=wrap;html=1;" vertex="1" parent="1">
          <mxGeometry x="230" y="160" width="120" height="30" as="geometry" />
        </mxCell>
        <mxCell id="_FhqAb7CmunBxcdor2dk-11" value="회원가입" style="rounded=0;whiteSpace=wrap;html=1;" vertex="1" parent="1">
          <mxGeometry x="230" y="200" width="120" height="30" as="geometry" />
        </mxCell>
        <mxCell id="_FhqAb7CmunBxcdor2dk-12" value="이메일" style="rounded=0;whiteSpace=wrap;html=1;" vertex="1" parent="1">
          <mxGeometry x="370" y="200" width="120" height="30" as="geometry" />
        </mxCell>
        <mxCell id="_FhqAb7CmunBxcdor2dk-13" value="" style="endArrow=none;html=1;rounded=0;entryX=1;entryY=0.5;entryDx=0;entryDy=0;exitX=0;exitY=0.5;exitDx=0;exitDy=0;" edge="1" parent="1" source="_FhqAb7CmunBxcdor2dk-12" target="_FhqAb7CmunBxcdor2dk-11">
          <mxGeometry width="50" height="50" relative="1" as="geometry">
            <mxPoint x="370" y="214.8" as="sourcePoint" />
            <mxPoint x="350" y="214.8" as="targetPoint" />
          </mxGeometry>
        </mxCell>
        <mxCell id="_FhqAb7CmunBxcdor2dk-14" value="휴대폰번호" style="rounded=0;whiteSpace=wrap;html=1;" vertex="1" parent="1">
          <mxGeometry x="370" y="230" width="120" height="30" as="geometry" />
        </mxCell>
        <mxCell id="_FhqAb7CmunBxcdor2dk-15" value="인증" style="rounded=0;whiteSpace=wrap;html=1;" vertex="1" parent="1">
          <mxGeometry x="510" y="200" width="120" height="30" as="geometry" />
        </mxCell>
        <mxCell id="_FhqAb7CmunBxcdor2dk-16" value="" style="endArrow=none;html=1;rounded=0;entryX=1;entryY=0.5;entryDx=0;entryDy=0;exitX=0;exitY=0.5;exitDx=0;exitDy=0;" edge="1" parent="1">
          <mxGeometry width="50" height="50" relative="1" as="geometry">
            <mxPoint x="510" y="214.82999999999998" as="sourcePoint" />
            <mxPoint x="490" y="214.82999999999998" as="targetPoint" />
          </mxGeometry>
        </mxCell>
        <mxCell id="_FhqAb7CmunBxcdor2dk-17" value="" style="endArrow=none;html=1;rounded=0;entryX=1;entryY=0.5;entryDx=0;entryDy=0;exitX=0;exitY=0.5;exitDx=0;exitDy=0;" edge="1" parent="1">
          <mxGeometry width="50" height="50" relative="1" as="geometry">
            <mxPoint x="650" y="214.70999999999998" as="sourcePoint" />
            <mxPoint x="630" y="214.70999999999998" as="targetPoint" />
          </mxGeometry>
        </mxCell>
        <mxCell id="_FhqAb7CmunBxcdor2dk-18" value="회원정보 입력" style="rounded=0;whiteSpace=wrap;html=1;" vertex="1" parent="1">
          <mxGeometry x="650" y="200" width="120" height="30" as="geometry" />
        </mxCell>
        <mxCell id="_FhqAb7CmunBxcdor2dk-19" value="" style="endArrow=none;html=1;rounded=0;entryX=0.5;entryY=1;entryDx=0;entryDy=0;exitX=0.5;exitY=0;exitDx=0;exitDy=0;" edge="1" parent="1" source="_FhqAb7CmunBxcdor2dk-6">
          <mxGeometry width="50" height="50" relative="1" as="geometry">
            <mxPoint x="149.66" y="150" as="sourcePoint" />
            <mxPoint x="149.66" y="130" as="targetPoint" />
          </mxGeometry>
        </mxCell>
        <mxCell id="_FhqAb7CmunBxcdor2dk-20" value="" style="endArrow=none;html=1;rounded=0;entryX=0.5;entryY=1;entryDx=0;entryDy=0;exitX=0.5;exitY=0;exitDx=0;exitDy=0;" edge="1" parent="1">
          <mxGeometry width="50" height="50" relative="1" as="geometry">
            <mxPoint x="149.66" y="330" as="sourcePoint" />
            <mxPoint x="149.66" y="310" as="targetPoint" />
          </mxGeometry>
        </mxCell>
        <mxCell id="_FhqAb7CmunBxcdor2dk-21" value="이동 거리" style="rounded=0;whiteSpace=wrap;html=1;" vertex="1" parent="1">
          <mxGeometry x="90" y="330" width="120" height="30" as="geometry" />
        </mxCell>
        <mxCell id="_FhqAb7CmunBxcdor2dk-22" value="회전수" style="rounded=0;whiteSpace=wrap;html=1;" vertex="1" parent="1">
          <mxGeometry x="90" y="360" width="120" height="30" as="geometry" />
        </mxCell>
        <mxCell id="_FhqAb7CmunBxcdor2dk-23" value="소모 칼로리" style="rounded=0;whiteSpace=wrap;html=1;" vertex="1" parent="1">
          <mxGeometry x="90" y="390" width="120" height="30" as="geometry" />
        </mxCell>
        <mxCell id="_FhqAb7CmunBxcdor2dk-24" value="통계(이동 거리)" style="rounded=0;whiteSpace=wrap;html=1;" vertex="1" parent="1">
          <mxGeometry x="230" y="280" width="120" height="30" as="geometry" />
        </mxCell>
        <mxCell id="_FhqAb7CmunBxcdor2dk-25" value="" style="endArrow=none;html=1;rounded=0;entryX=1;entryY=0.5;entryDx=0;entryDy=0;exitX=0;exitY=0.5;exitDx=0;exitDy=0;" edge="1" parent="1">
          <mxGeometry width="50" height="50" relative="1" as="geometry">
            <mxPoint x="230" y="294.65999999999997" as="sourcePoint" />
            <mxPoint x="210" y="294.65999999999997" as="targetPoint" />
          </mxGeometry>
        </mxCell>
        <mxCell id="_FhqAb7CmunBxcdor2dk-26" value="" style="endArrow=none;html=1;rounded=0;entryX=1;entryY=0.5;entryDx=0;entryDy=0;exitX=0;exitY=0.5;exitDx=0;exitDy=0;" edge="1" parent="1">
          <mxGeometry width="50" height="50" relative="1" as="geometry">
            <mxPoint x="370" y="294.65999999999997" as="sourcePoint" />
            <mxPoint x="350" y="294.65999999999997" as="targetPoint" />
          </mxGeometry>
        </mxCell>
        <mxCell id="_FhqAb7CmunBxcdor2dk-27" value="설정" style="rounded=0;whiteSpace=wrap;html=1;" vertex="1" parent="1">
          <mxGeometry x="370" y="280" width="120" height="30" as="geometry" />
        </mxCell>
        <mxCell id="_FhqAb7CmunBxcdor2dk-28" value="" style="endArrow=none;html=1;rounded=0;entryX=1;entryY=0.5;entryDx=0;entryDy=0;exitX=0;exitY=0.5;exitDx=0;exitDy=0;" edge="1" parent="1">
          <mxGeometry width="50" height="50" relative="1" as="geometry">
            <mxPoint x="510" y="294.65999999999997" as="sourcePoint" />
            <mxPoint x="490" y="294.65999999999997" as="targetPoint" />
          </mxGeometry>
        </mxCell>
        <mxCell id="_FhqAb7CmunBxcdor2dk-29" value="모터 제어" style="rounded=0;whiteSpace=wrap;html=1;" vertex="1" parent="1">
          <mxGeometry x="510" y="280" width="120" height="30" as="geometry" />
        </mxCell>
        <mxCell id="_FhqAb7CmunBxcdor2dk-30" value="" style="endArrow=none;html=1;rounded=0;entryX=1;entryY=0.5;entryDx=0;entryDy=0;exitX=0;exitY=0.5;exitDx=0;exitDy=0;" edge="1" parent="1">
          <mxGeometry width="50" height="50" relative="1" as="geometry">
            <mxPoint x="650" y="294.65999999999997" as="sourcePoint" />
            <mxPoint x="630" y="294.65999999999997" as="targetPoint" />
          </mxGeometry>
        </mxCell>
        <mxCell id="_FhqAb7CmunBxcdor2dk-31" value="기타" style="rounded=0;whiteSpace=wrap;html=1;" vertex="1" parent="1">
          <mxGeometry x="650" y="280" width="120" height="30" as="geometry" />
        </mxCell>
        <mxCell id="_FhqAb7CmunBxcdor2dk-32" value="탑승 여부" style="rounded=0;whiteSpace=wrap;html=1;" vertex="1" parent="1">
          <mxGeometry x="90" y="420" width="120" height="30" as="geometry" />
        </mxCell>
        <mxCell id="_FhqAb7CmunBxcdor2dk-33" value="일간" style="rounded=0;whiteSpace=wrap;html=1;" vertex="1" parent="1">
          <mxGeometry x="230" y="330" width="120" height="30" as="geometry" />
        </mxCell>
        <mxCell id="_FhqAb7CmunBxcdor2dk-34" value="주간" style="rounded=0;whiteSpace=wrap;html=1;" vertex="1" parent="1">
          <mxGeometry x="230" y="360" width="120" height="30" as="geometry" />
        </mxCell>
        <mxCell id="_FhqAb7CmunBxcdor2dk-35" value="월간" style="rounded=0;whiteSpace=wrap;html=1;" vertex="1" parent="1">
          <mxGeometry x="230" y="390" width="120" height="30" as="geometry" />
        </mxCell>
        <mxCell id="_FhqAb7CmunBxcdor2dk-36" value="" style="endArrow=none;html=1;rounded=0;entryX=0.5;entryY=1;entryDx=0;entryDy=0;exitX=0.5;exitY=0;exitDx=0;exitDy=0;" edge="1" parent="1">
          <mxGeometry width="50" height="50" relative="1" as="geometry">
            <mxPoint x="289.58" y="330" as="sourcePoint" />
            <mxPoint x="289.58" y="310" as="targetPoint" />
          </mxGeometry>
        </mxCell>
        <mxCell id="_FhqAb7CmunBxcdor2dk-37" value="이름" style="rounded=0;whiteSpace=wrap;html=1;" vertex="1" parent="1">
          <mxGeometry x="370" y="330" width="120" height="30" as="geometry" />
        </mxCell>
        <mxCell id="_FhqAb7CmunBxcdor2dk-38" value="생일" style="rounded=0;whiteSpace=wrap;html=1;" vertex="1" parent="1">
          <mxGeometry x="370" y="360" width="120" height="30" as="geometry" />
        </mxCell>
        <mxCell id="_FhqAb7CmunBxcdor2dk-39" value="사진" style="rounded=0;whiteSpace=wrap;html=1;" vertex="1" parent="1">
          <mxGeometry x="370" y="390" width="120" height="30" as="geometry" />
        </mxCell>
        <mxCell id="_FhqAb7CmunBxcdor2dk-40" value="몸무게" style="rounded=0;whiteSpace=wrap;html=1;" vertex="1" parent="1">
          <mxGeometry x="370" y="480" width="120" height="30" as="geometry" />
        </mxCell>
        <mxCell id="_FhqAb7CmunBxcdor2dk-41" value="허벅지 길이" style="rounded=0;whiteSpace=wrap;html=1;" vertex="1" parent="1">
          <mxGeometry x="370" y="450" width="120" height="30" as="geometry" />
        </mxCell>
        <mxCell id="_FhqAb7CmunBxcdor2dk-42" value="몸통 둘레" style="rounded=0;whiteSpace=wrap;html=1;" vertex="1" parent="1">
          <mxGeometry x="370" y="420" width="120" height="30" as="geometry" />
        </mxCell>
        <mxCell id="_FhqAb7CmunBxcdor2dk-43" value="BMI" style="rounded=0;whiteSpace=wrap;html=1;" vertex="1" parent="1">
          <mxGeometry x="370" y="510" width="120" height="30" as="geometry" />
        </mxCell>
        <mxCell id="_FhqAb7CmunBxcdor2dk-44" value="구동/정지" style="rounded=0;whiteSpace=wrap;html=1;" vertex="1" parent="1">
          <mxGeometry x="510" y="330" width="120" height="30" as="geometry" />
        </mxCell>
        <mxCell id="_FhqAb7CmunBxcdor2dk-45" value="속도 조절" style="rounded=0;whiteSpace=wrap;html=1;" vertex="1" parent="1">
          <mxGeometry x="510" y="360" width="120" height="30" as="geometry" />
        </mxCell>
        <mxCell id="_FhqAb7CmunBxcdor2dk-46" value="블루투스" style="rounded=0;whiteSpace=wrap;html=1;" vertex="1" parent="1">
          <mxGeometry x="650" y="390" width="120" height="30" as="geometry" />
        </mxCell>
        <mxCell id="_FhqAb7CmunBxcdor2dk-47" value="배터리" style="rounded=0;whiteSpace=wrap;html=1;" vertex="1" parent="1">
          <mxGeometry x="650" y="330" width="120" height="30" as="geometry" />
        </mxCell>
        <mxCell id="_FhqAb7CmunBxcdor2dk-48" value="펌웨어 업데이트" style="rounded=0;whiteSpace=wrap;html=1;" vertex="1" parent="1">
          <mxGeometry x="650" y="360" width="120" height="30" as="geometry" />
        </mxCell>
        <mxCell id="_FhqAb7CmunBxcdor2dk-49" value="" style="endArrow=none;html=1;rounded=0;entryX=0.5;entryY=1;entryDx=0;entryDy=0;exitX=0.5;exitY=0;exitDx=0;exitDy=0;" edge="1" parent="1">
          <mxGeometry width="50" height="50" relative="1" as="geometry">
            <mxPoint x="429.58" y="330" as="sourcePoint" />
            <mxPoint x="429.58" y="310" as="targetPoint" />
          </mxGeometry>
        </mxCell>
        <mxCell id="_FhqAb7CmunBxcdor2dk-50" value="" style="endArrow=none;html=1;rounded=0;entryX=0.5;entryY=1;entryDx=0;entryDy=0;exitX=0.5;exitY=0;exitDx=0;exitDy=0;" edge="1" parent="1">
          <mxGeometry width="50" height="50" relative="1" as="geometry">
            <mxPoint x="569.58" y="330" as="sourcePoint" />
            <mxPoint x="569.58" y="310" as="targetPoint" />
          </mxGeometry>
        </mxCell>
        <mxCell id="_FhqAb7CmunBxcdor2dk-51" value="" style="endArrow=none;html=1;rounded=0;entryX=0.5;entryY=1;entryDx=0;entryDy=0;exitX=0.5;exitY=0;exitDx=0;exitDy=0;" edge="1" parent="1">
          <mxGeometry width="50" height="50" relative="1" as="geometry">
            <mxPoint x="709.5799999999999" y="330" as="sourcePoint" />
            <mxPoint x="709.5799999999999" y="310" as="targetPoint" />
          </mxGeometry>
        </mxCell>
        <mxCell id="_FhqAb7CmunBxcdor2dk-52" value="" style="endArrow=none;html=1;rounded=0;" edge="1" parent="1">
          <mxGeometry width="50" height="50" relative="1" as="geometry">
            <mxPoint x="220" y="215" as="sourcePoint" />
            <mxPoint x="220" y="115" as="targetPoint" />
          </mxGeometry>
        </mxCell>
        <mxCell id="_FhqAb7CmunBxcdor2dk-53" value="" style="endArrow=none;html=1;rounded=0;exitX=0;exitY=0.5;exitDx=0;exitDy=0;" edge="1" parent="1" source="_FhqAb7CmunBxcdor2dk-11">
          <mxGeometry width="50" height="50" relative="1" as="geometry">
            <mxPoint x="200" y="214.76" as="sourcePoint" />
            <mxPoint x="220" y="215" as="targetPoint" />
          </mxGeometry>
        </mxCell>
      </root>
    </mxGraphModel>
  </diagram>
</mxfile>
